<?xml version="1.0" standalone="no"?>
<!DOCTYPE svg PUBLIC "-//W3C//DTD SVG 20010904//EN"
 "http://www.w3.org/TR/2001/REC-SVG-20010904/DTD/svg10.dtd">
<svg version="1.0" xmlns="http://www.w3.org/2000/svg"
 width="2000.000000pt" height="2000.000000pt" viewBox="0 0 2000.000000 2000.000000"
 preserveAspectRatio="xMidYMid meet">
<metadata>
Created by potrace 1.15, written by Peter Selinger 2001-2017
</metadata>
<g transform="translate(0.000000,2000.000000) scale(0.100000,-0.100000)"
fill="#000000" stroke="none">
<path d="M9645 17765 c-22 -7 -65 -21 -95 -29 -77 -22 -112 -53 -119 -105 -6
-42 -7 -43 -66 -62 -161 -54 -318 -152 -442 -276 -65 -66 -91 -102 -127 -173
-122 -244 -182 -550 -193 -983 -6 -229 -5 -249 12 -267 11 -12 31 -20 49 -20
17 0 36 -4 42 -8 7 -4 13 -60 17 -142 6 -147 23 -227 83 -405 83 -250 211
-515 315 -656 60 -82 175 -191 229 -219 43 -22 48 -31 26 -49 -10 -9 -16 -8
-26 4 -18 21 -32 9 -89 -76 -49 -74 -51 -76 -113 -93 -83 -23 -142 -58 -268
-159 -496 -398 -840 -1014 -1094 -1963 -123 -456 -199 -882 -237 -1329 -18
-211 -16 -675 5 -885 30 -303 116 -750 152 -791 20 -22 148 -43 226 -37 l63 5
57 -68 58 -67 -26 -56 c-83 -182 -28 -385 135 -494 67 -45 130 -66 285 -96
l111 -22 -175 -7 c-294 -12 -592 -54 -795 -112 l-85 -25 -43 31 c-33 23 -59
32 -103 36 l-59 5 31 67 c56 116 69 194 69 396 0 99 -7 304 -15 455 -12 224
-14 517 -12 1570 3 1312 1 1433 -34 1566 -49 195 -168 302 -374 339 -189 35
-1942 45 -2590 15 -118 -5 -361 -14 -540 -20 -472 -15 -623 -32 -829 -91 -300
-86 -507 -251 -669 -532 -183 -320 -268 -780 -303 -1642 -15 -366 -15 -1379
-1 -1665 33 -651 37 -680 84 -699 13 -5 48 -20 78 -32 49 -21 71 -24 195 -23
92 0 189 7 285 22 179 26 416 40 888 48 l363 7 38 -37 c56 -54 126 -77 256
-84 l110 -5 32 -37 c38 -44 172 -121 507 -291 l249 -126 -62 -37 c-34 -21 -84
-55 -111 -77 -48 -38 -52 -39 -88 -29 -74 21 -234 23 -437 6 -320 -26 -358
-39 -411 -140 -25 -49 -32 -56 -52 -51 -154 38 -261 -13 -332 -159 -43 -90
-73 -205 -124 -478 -57 -305 -70 -411 -63 -518 9 -138 45 -210 117 -231 l39
-12 3 -116 3 -116 -64 -140 c-102 -225 -187 -435 -236 -582 -25 -76 -53 -153
-61 -171 -9 -19 -14 -53 -12 -84 l3 -53 40 -7 c22 -4 209 -7 415 -8 206 0 385
-3 397 -6 l22 -6 -21 -28 c-11 -15 -18 -32 -15 -37 3 -5 -2 -36 -11 -69 -25
-88 -24 -455 2 -574 61 -283 190 -543 377 -760 43 -50 65 -82 57 -84 -7 -3
-78 -10 -158 -16 -539 -42 -1114 -122 -1380 -191 -353 -93 -345 -191 21 -284
530 -133 1873 -254 3504 -315 149 -5 329 -12 400 -15 72 -2 238 -7 370 -10
132 -3 283 -8 335 -10 611 -27 4167 -27 4715 0 44 2 193 6 330 10 138 3 309 8
380 10 72 3 252 10 400 15 1631 61 2974 182 3504 315 358 91 373 189 42 279
-51 14 -95 27 -97 29 -2 1 35 32 82 67 110 83 292 270 372 383 166 234 258
454 314 752 19 103 23 154 23 355 0 208 -3 247 -23 340 -34 157 -106 362 -166
476 l-54 101 55 23 c80 33 192 110 240 164 106 121 116 250 30 395 -94 158
-352 354 -687 522 -409 204 -679 272 -1085 272 -262 -1 -487 -36 -723 -114
-51 -17 -95 -29 -97 -28 -2 2 -15 34 -29 71 l-25 67 24 43 c13 24 33 67 44 96
12 29 36 68 55 86 46 47 71 141 63 233 -10 102 -34 176 -177 553 -270 709
-463 1151 -843 1932 -125 257 -210 412 -275 501 -19 26 -33 50 -31 52 7 6 223
33 359 45 177 16 170 8 170 219 0 91 -7 225 -15 296 -8 72 -21 197 -30 279 -8
82 -21 156 -27 164 -10 12 -54 14 -263 11 l-250 -4 -6 185 c-4 102 -10 408
-14 680 -5 376 -10 507 -21 546 -17 64 -66 114 -176 179 -91 54 -85 36 -54
180 18 83 21 238 4 286 -16 48 -42 82 -75 99 -15 8 -39 22 -52 32 -14 11 -41
18 -66 18 -93 0 -195 -107 -303 -319 -120 -234 -182 -430 -182 -578 0 -122 30
-182 112 -224 140 -72 318 62 450 336 38 79 42 84 62 73 50 -26 117 -82 137
-115 22 -35 22 -40 24 -497 1 -253 6 -563 10 -688 l8 -227 -39 -6 c-197 -31
-425 -125 -593 -246 l-83 -60 -38 35 c-44 40 -96 52 -160 37 -64 -15 -260 -82
-363 -125 -78 -32 -90 -35 -103 -22 -17 17 -132 55 -349 116 -465 129 -718
221 -1214 440 -317 139 -374 162 -517 205 -131 40 -159 53 -196 90 -31 31 -30
25 -64 260 -42 288 -41 260 -5 275 18 7 36 20 41 30 6 10 -7 151 -35 396 -25
208 -58 501 -75 649 -16 149 -37 302 -46 341 l-17 70 57 85 c75 111 125 216
133 278 5 44 2 56 -20 90 -14 21 -49 54 -76 72 -28 18 -51 35 -51 38 0 20 125
181 141 181 4 0 40 -21 79 -46 237 -153 565 -258 810 -259 115 0 163 12 211
52 40 34 61 78 97 208 43 158 44 160 31 211 -10 38 -21 53 -61 82 -77 57 -161
137 -198 188 -33 46 -33 47 -9 40 48 -14 205 -18 264 -7 67 12 85 29 85 78 0
57 25 98 105 176 87 83 91 100 30 137 -93 58 -183 197 -210 328 -15 70 -19
318 -7 422 l7 55 85 7 c286 25 607 134 838 284 165 108 312 241 312 285 0 41
-23 51 -133 60 -159 13 -326 36 -657 89 -168 27 -330 52 -360 57 l-54 8 -23
84 c-29 112 -74 221 -204 486 -117 242 -152 289 -242 331 -76 34 -154 51 -317
69 -80 9 -237 34 -350 56 -113 23 -251 43 -307 46 -91 5 -104 8 -117 28 -33
50 -113 66 -191 40z m908 -1814 c182 -64 393 -104 613 -117 l122 -7 -5 -41
c-9 -68 -21 -122 -22 -99 -2 51 -70 65 -192 39 -101 -22 -163 -53 -214 -107
-25 -26 -45 -52 -45 -57 0 -4 30 6 66 24 107 52 199 64 321 43 l63 -11 0 -52
c0 -83 19 -216 41 -285 30 -94 62 -151 129 -232 33 -39 60 -77 60 -84 0 -17
-28 -40 -81 -68 -41 -22 -44 -27 -47 -68 -4 -75 -11 -89 -47 -105 -54 -22
-149 -18 -247 12 -72 22 -90 25 -103 14 -23 -19 -18 -49 23 -123 50 -92 95
-145 174 -207 38 -30 75 -69 85 -89 27 -55 22 -148 -11 -216 -33 -67 -114
-142 -163 -151 -95 -18 -348 25 -511 86 -325 123 -572 338 -796 695 l-56 89
50 19 c27 10 61 32 75 48 28 34 29 38 15 59 -8 13 -14 13 -42 1 -118 -48 -173
-46 -229 10 -69 69 -92 232 -55 379 36 139 140 260 225 260 45 0 83 -46 130
-157 60 -142 103 -181 172 -153 32 14 49 37 49 68 0 23 75 177 157 320 61 108
113 222 113 247 0 16 51 44 83 45 10 0 55 -13 100 -29z m-767 -1433 c27 -40
97 -121 156 -180 113 -113 116 -128 20 -83 -71 33 -161 121 -223 217 -49 76
-50 80 -33 99 9 10 20 19 24 19 3 0 29 -33 56 -72z m-91 -27 c13 -27 46 -78
73 -113 l48 -63 -124 63 -124 64 48 49 c27 27 49 49 51 49 1 0 14 -22 28 -49z
m93 -233 c43 -21 67 -28 69 -21 3 8 25 2 66 -18 34 -16 68 -29 76 -29 8 0 -1
-16 -21 -37 -18 -21 -44 -55 -56 -75 -13 -21 -26 -38 -28 -38 -3 0 -62 37
-132 82 -70 45 -167 102 -215 128 l-88 47 45 61 45 61 87 -64 c48 -36 116 -80
152 -97z m3706 -1199 c17 -86 -4 -257 -47 -384 -51 -150 -174 -349 -259 -420
l-32 -27 -28 31 c-36 40 -36 82 -3 216 46 185 139 408 213 509 34 46 112 106
138 106 6 0 14 -14 18 -31z m58 -11 c21 -71 16 -212 -11 -298 -48 -158 -178
-387 -287 -509 -41 -46 -74 -65 -74 -43 0 4 25 32 56 62 136 133 264 388 294
584 11 77 7 177 -11 224 -6 16 -5 22 6 22 8 0 20 -18 27 -42z m-3577 -1210 c3
-29 16 -152 30 -272 20 -183 27 -224 45 -248 14 -18 16 -28 8 -28 -39 0 -239
-123 -224 -137 2 -3 32 14 66 37 66 45 156 90 180 90 8 0 -9 -11 -39 -25 -81
-38 -146 -90 -207 -166 -37 -47 -65 -71 -87 -78 -32 -9 -32 -9 -4 -10 38 -1
66 19 120 89 45 58 154 140 206 155 17 5 5 -11 -41 -56 -74 -73 -111 -136
-106 -182 2 -26 8 -33 28 -35 23 -3 24 -3 7 10 -15 11 -16 18 -7 43 32 85 155
225 197 225 29 0 222 -50 288 -75 39 -15 205 -87 371 -160 644 -287 957 -403
1286 -480 l117 -28 -44 -50 c-49 -57 -97 -140 -116 -205 -9 -31 -17 -41 -28
-38 -38 11 -354 71 -701 131 -428 76 -572 104 -896 180 -423 100 -631 141
-846 170 -56 7 -41 -35 -132 365 -36 157 -82 346 -101 420 -20 74 -35 143 -33
153 2 15 41 32 183 82 99 34 243 87 320 118 77 31 143 56 147 56 4 1 9 -23 13
-51z m-3949 -794 c-31 -124 -155 -771 -151 -785 7 -21 44 -25 77 -8 19 10 20
9 13 -23 -18 -86 -94 -148 -180 -148 -41 0 -52 5 -78 33 l-31 32 -45 -49 c-55
-59 -109 -85 -174 -86 -103 0 -142 52 -141 191 2 191 114 416 248 494 62 36
138 50 175 32 l29 -14 27 136 c16 75 32 141 37 146 8 9 173 73 192 74 4 1 5
-11 2 -25z m8211 -501 l-1 -338 -17 220 c-9 121 -19 273 -23 338 l-7 117 24 0
24 0 0 -337z m147 75 c4 -145 13 -306 20 -358 7 -52 11 -97 9 -99 -2 -3 -30
-7 -62 -9 l-59 -4 -6 63 c-9 88 -26 474 -26 582 l0 87 58 0 59 0 7 -262z
m-10029 115 c-11 -59 -41 -109 -82 -134 -30 -19 -57 -25 -128 -29 l-90 -5 -28
-129 c-15 -71 -26 -131 -23 -133 3 -3 44 4 93 15 48 11 89 19 91 18 7 -8 -12
-89 -23 -100 -7 -7 -51 -20 -96 -29 -46 -10 -86 -20 -90 -25 -3 -4 -29 -121
-58 -261 -28 -140 -53 -256 -54 -257 -3 -3 -192 -42 -194 -40 -1 1 146 724
183 899 5 26 5 27 -23 16 -43 -16 -91 -67 -110 -118 -13 -34 -18 -75 -18 -158
l0 -113 -47 0 c-39 0 -50 5 -68 28 -20 24 -22 36 -18 104 9 152 104 277 271
357 81 39 148 56 339 86 54 8 112 21 130 29 48 21 51 20 43 -21z m867 -152
c16 -18 31 -49 34 -72 l7 -40 25 23 c13 13 35 40 48 61 15 22 32 37 44 37 11
0 20 -2 20 -5 0 -20 -68 -134 -101 -169 -26 -29 -39 -53 -39 -72 -1 -103 -73
-274 -149 -351 -67 -68 -128 -97 -216 -101 -120 -5 -165 43 -165 176 0 140 68
323 156 421 109 122 270 166 336 92z m7753 25 c37 -16 76 -76 178 -277 72
-141 82 -199 47 -275 l-23 -49 -8 59 c-5 33 -22 89 -39 125 -31 65 -98 157
-107 147 -3 -3 7 -19 21 -37 64 -76 91 -167 81 -275 -6 -63 -10 -73 -32 -83
-13 -6 -25 -11 -26 -11 -1 0 -2 35 -2 78 0 67 -4 87 -30 137 -16 32 -35 60
-41 62 -7 2 -3 -15 9 -38 32 -65 34 -131 6 -211 l-23 -67 -67 -16 c-105 -23
-152 -17 -112 16 9 8 27 37 39 64 53 113 10 247 -91 285 -87 33 -232 -6 -300
-81 -35 -39 -42 -57 -27 -74 5 -6 6 -25 3 -43 l-6 -33 -55 39 c-65 47 -116
121 -112 163 3 26 0 29 -25 29 -16 0 -38 -7 -50 -15 -21 -15 -22 -15 -16 22 6
43 61 168 93 213 26 36 63 40 96 9 l22 -20 178 61 c165 57 341 108 372 110 7
0 28 -6 47 -14z m-2974 -111 c66 -14 257 -50 423 -80 165 -30 490 -93 721
-140 441 -90 740 -144 939 -170 l119 -15 56 -53 c66 -63 82 -73 146 -87 35 -8
59 -22 92 -55 28 -28 59 -49 86 -56 23 -6 69 -24 101 -40 96 -47 175 -38 348
38 55 24 88 33 105 28 23 -5 21 -9 -46 -71 -144 -134 -181 -291 -121 -523 32
-125 168 -519 402 -1161 350 -964 366 -1016 388 -1259 17 -192 -12 -357 -102
-584 -119 -299 -312 -578 -498 -719 -91 -70 -266 -153 -381 -182 -152 -39
-226 -46 -536 -53 -274 -6 -291 -5 -290 12 1 9 -6 22 -17 29 -14 9 -20 8 -29
-6 -10 -16 -16 -14 -68 13 -67 36 -110 76 -88 83 8 2 47 9 88 15 87 14 91 16
91 43 0 19 -4 20 -59 15 -33 -4 -78 -9 -100 -13 -35 -6 -41 -4 -41 11 0 15 6
17 42 12 43 -6 99 11 113 33 4 6 15 75 25 153 48 376 143 651 450 1302 175
369 301 651 415 920 98 233 276 693 294 760 37 137 -23 256 -167 333 -74 40
-723 272 -1172 420 -560 184 -1131 357 -1515 458 -77 20 -143 38 -147 40 -4 3
9 26 28 51 43 57 42 66 -30 170 -75 109 -219 366 -201 359 8 -3 69 -17 136
-31z m-5372 -31 c20 -16 35 -42 42 -70 10 -38 14 -42 30 -34 10 6 30 31 45 55
19 34 32 45 50 45 l25 0 -36 -69 c-20 -37 -52 -85 -70 -106 -19 -21 -35 -46
-35 -57 0 -45 -35 -168 -66 -234 -68 -144 -171 -223 -302 -231 -118 -7 -162
42 -162 180 0 137 56 299 140 405 96 120 265 178 339 116z m8008 -344 c62 -37
80 -123 37 -171 -24 -27 -31 -24 -38 16 -4 22 -13 35 -22 35 -12 0 -14 -8 -8
-45 7 -52 -1 -56 -54 -23 -43 26 -76 96 -67 139 5 20 18 35 43 49 47 24 69 25
109 0z m-5738 -537 c-47 -235 -94 -446 -103 -468 -42 -100 -115 -164 -210
-186 -98 -22 -166 25 -166 114 0 81 53 150 164 212 38 21 66 44 69 57 5 18 1
16 -26 -10 -41 -40 -112 -72 -159 -72 -27 0 -46 8 -70 29 -51 45 -50 102 6
377 26 126 51 238 56 250 6 17 25 24 92 37 45 10 88 17 94 17 8 0 -5 -82 -37
-237 -53 -256 -57 -306 -23 -311 28 -4 68 30 89 75 10 20 39 142 65 271 26
128 49 234 51 236 7 5 184 43 189 40 3 -1 -33 -195 -81 -431z m7025 275 c13
-31 13 -32 -61 -117 -189 -219 -273 -397 -273 -583 0 -153 43 -260 215 -538
53 -85 114 -191 135 -235 79 -166 149 -416 187 -670 24 -166 24 -567 -1 -750
-76 -567 -306 -1262 -532 -1608 -44 -67 -103 -138 -173 -208 -125 -126 -189
-167 -88 -59 83 89 192 250 254 374 133 264 287 736 382 1169 128 580 142 909
55 1267 -57 231 -154 449 -333 749 -167 279 -207 389 -198 546 10 191 103 364
321 600 48 52 90 95 92 95 3 0 11 -14 18 -32z m-7557 -10 c17 -16 23 -32 23
-65 0 -58 -48 -114 -100 -116 -31 -2 -37 2 -49 31 -18 40 -41 41 -83 3 -32
-28 -34 -36 -88 -297 l-55 -269 -97 -21 c-54 -11 -98 -18 -98 -15 0 10 140
695 143 696 7 5 161 35 176 35 17 0 18 -5 11 -36 l-8 -37 36 36 c80 77 146 96
189 55z m-1602 -74 c76 -82 -42 -229 -150 -188 -26 10 -48 62 -40 100 7 38 48
92 79 104 43 18 86 11 111 -16z m1064 -50 c20 -24 23 -36 19 -88 -2 -37 -13
-81 -28 -111 -34 -71 -122 -155 -203 -195 -37 -18 -70 -37 -73 -41 -12 -20 10
-91 33 -106 21 -14 27 -14 67 1 25 9 65 35 90 57 50 44 55 39 30 -34 -37 -110
-143 -181 -271 -182 -66 0 -74 2 -102 30 -41 38 -55 93 -47 180 18 212 127
409 265 479 103 53 179 56 220 10z m-1389 -4 c0 -5 -34 -176 -75 -380 -41
-204 -75 -384 -75 -401 0 -36 21 -47 63 -31 l29 11 -5 -35 c-16 -95 -125 -164
-222 -140 -39 10 -65 61 -65 127 0 52 142 775 155 788 7 6 174 70 188 70 4 1
7 -3 7 -9z m887 -77 c41 -63 2 -315 -73 -473 -48 -101 -105 -172 -175 -219
-147 -98 -279 -65 -279 69 0 45 83 487 99 526 7 15 27 24 88 37 43 9 86 17 94
17 14 0 9 -35 -32 -242 -27 -133 -49 -257 -49 -275 0 -28 4 -33 24 -33 38 0
86 41 128 110 43 72 94 222 104 305 l7 55 -37 0 c-30 0 -38 5 -46 26 -14 36
-3 70 32 99 41 35 92 34 115 -2z m-1926 -115 c56 -16 112 -69 140 -130 22 -49
24 -65 23 -203 0 -133 -4 -160 -28 -240 -102 -338 -296 -518 -465 -431 -28 15
-29 15 -34 -12 -5 -26 -11 -29 -97 -46 -50 -10 -93 -16 -97 -13 -4 5 143 753
168 848 9 34 12 37 104 69 53 18 98 31 100 29 2 -3 -126 -651 -150 -756 -4
-17 1 -23 24 -28 129 -28 266 225 289 534 13 179 -11 273 -78 301 -78 32 -245
-27 -336 -118 -86 -85 -136 -244 -106 -331 l11 -31 -54 0 c-46 0 -56 4 -75 28
-45 56 -11 189 73 290 147 175 425 289 588 240z m1339 -10 c0 -7 -23 -127 -51
-266 -47 -230 -51 -255 -36 -269 13 -13 21 -14 48 -4 18 6 34 9 37 7 8 -9 -20
-77 -45 -107 -35 -42 -78 -61 -136 -62 -44 -1 -53 3 -78 31 -25 28 -29 40 -29
95 0 58 85 523 99 539 5 6 138 40 184 47 4 0 7 -5 7 -11z m-685 -173 c21 -20
25 -34 25 -82 0 -122 -95 -252 -231 -316 l-69 -32 0 -47 c0 -53 18 -78 56 -78
32 0 94 32 139 71 31 27 35 29 35 12 0 -34 -60 -142 -94 -168 -57 -43 -117
-65 -184 -65 -120 0 -157 42 -156 180 1 199 108 419 241 497 64 37 111 52 166
53 38 0 53 -5 72 -25z m9969 -395 c49 -11 100 -27 112 -35 66 -43 212 -293
326 -560 60 -140 108 -268 103 -273 -7 -8 -170 24 -247 48 -110 34 -104 26
-340 490 -138 272 -156 314 -138 335 17 20 76 19 184 -5z m-2817 -622 c205 -9
305 -9 463 0 236 14 244 12 200 -53 -214 -312 -522 -890 -757 -1421 -134 -303
-423 -1022 -423 -1053 0 -46 37 -65 195 -100 83 -19 154 -37 158 -41 4 -4 -2
-32 -14 -63 -19 -49 -25 -57 -48 -57 -51 0 -86 -33 -135 -129 l-47 -91 -72 0
c-331 1 -703 58 -892 138 -172 73 -164 67 -201 146 -85 185 -119 337 -119 536
1 195 27 313 108 475 98 197 241 338 582 575 203 140 282 232 331 384 43 134
42 317 -2 463 -5 17 -2 24 12 29 11 3 51 21 91 40 92 44 147 105 171 187 l17
59 60 -5 c33 -4 178 -12 322 -19z m-4982 -529 c-82 -27 -203 -65 -267 -84
-134 -40 -218 -75 -264 -110 -18 -14 -39 -25 -46 -25 -7 0 -127 57 -266 127
l-253 128 503 5 c277 3 557 6 623 7 l120 2 -150 -50z m-1556 -846 c-263 -273
-460 -531 -666 -873 -35 -58 -63 -102 -63 -97 0 7 164 546 245 802 24 77 51
170 60 207 13 51 22 68 38 72 12 4 114 11 227 17 113 5 212 11 220 13 8 2 30
4 49 5 32 1 30 -2 -110 -146z m-489 -19 c-12 -32 -63 -198 -115 -369 -51 -170
-114 -373 -138 -450 -25 -77 -59 -192 -77 -255 -18 -63 -46 -137 -62 -165
l-29 -50 6 55 c32 267 106 515 277 930 33 80 80 196 105 258 47 119 68 147 33
46z m700 -297 c0 -17 -245 -386 -340 -513 -49 -64 -84 -101 -111 -114 -41 -21
-219 -72 -219 -63 0 17 123 244 178 328 119 183 263 340 333 362 51 16 159 16
159 0z m6420 -1026 c80 -16 188 -36 241 -46 l95 -17 -4 -29 -4 -29 -108 0
c-74 0 -131 6 -184 20 -95 24 -199 77 -191 97 3 8 5 19 5 24 0 11 -19 14 150
-20z m-70 -99 c87 -43 168 -64 310 -80 l75 -8 -60 -19 c-88 -29 -246 -28 -342
3 -55 17 -73 27 -73 40 0 10 -5 23 -11 29 -11 11 -2 86 10 81 3 -2 44 -22 91
-46z m5322 -433 c34 -17 80 -43 102 -57 39 -24 40 -26 19 -35 -28 -12 -35 -31
-20 -51 10 -13 21 -14 66 -7 51 8 55 7 85 -21 21 -20 27 -31 18 -35 -17 -7
-42 -32 -42 -43 0 -25 30 -38 67 -29 59 13 59 13 114 -63 69 -97 125 -217 156
-336 33 -124 37 -330 9 -457 -40 -184 -137 -374 -271 -535 -84 -100 -157 -166
-276 -245 -217 -146 -428 -203 -686 -183 -446 33 -925 424 -1087 888 -39 111
-74 247 -67 257 3 5 26 17 51 27 25 10 101 46 168 81 104 54 128 62 149 54 17
-6 23 -14 19 -27 -36 -117 -39 -295 -7 -417 11 -44 43 -125 71 -180 32 -64 48
-107 44 -121 -4 -16 13 -38 84 -105 50 -47 108 -93 129 -103 44 -22 60 -30
128 -67 101 -56 200 -81 332 -87 227 -9 419 53 611 197 182 138 300 315 359
541 34 128 36 316 4 434 -76 284 -300 506 -578 571 -49 12 -73 23 -76 34 -3
13 -27 22 -86 35 -45 10 -81 20 -79 21 15 15 171 68 234 79 132 24 185 21 256
-15z m-2821 -210 c-58 -129 -175 -500 -186 -590 -8 -61 6 -129 35 -169 45 -64
168 -103 362 -115 l108 -7 20 -68 c11 -37 20 -76 20 -87 0 -10 4 -23 9 -28 12
-13 56 -156 71 -230 39 -189 177 -450 340 -642 33 -40 55 -71 48 -68 -7 2
-114 9 -238 15 -124 5 -263 12 -310 15 -47 3 -195 9 -330 15 -135 5 -301 12
-370 15 -203 8 -700 24 -1220 37 -675 18 -3517 17 -4183 0 -274 -8 -501 -12
-503 -9 -3 2 20 40 49 83 120 175 177 313 252 609 73 284 94 508 60 621 -8 27
-15 52 -15 57 0 4 296 5 658 3 361 -3 675 -4 697 -4 22 0 722 1 1555 2 1762 2
2031 10 2254 67 259 66 463 191 746 458 52 49 96 88 98 87 1 -2 -11 -32 -27
-67z m-3081 14 c0 -10 -5 -35 -11 -55 -9 -36 -12 -38 -52 -38 -30 0 -72 15
-144 50 -57 27 -103 51 -103 54 0 3 70 6 155 6 141 0 155 -2 155 -17z m5714
-27 c184 -66 361 -236 427 -410 12 -31 19 -59 16 -63 -4 -3 -67 -11 -141 -17
-74 -6 -137 -14 -140 -17 -4 -3 0 -24 8 -47 8 -23 20 -78 27 -122 l12 -82 140
7 140 8 -7 -65 c-21 -208 -126 -412 -289 -565 -105 -98 -100 -98 -149 1 l-42
84 47 52 c60 66 111 170 133 266 44 198 -30 416 -190 561 -97 89 -275 162
-396 163 -32 0 -38 6 -67 55 l-32 55 82 0 c45 0 111 -7 146 -15 36 -9 68 -12
71 -8 4 4 15 42 25 83 29 122 27 120 74 109 21 -5 69 -19 105 -33z m-279 -308
c92 -22 187 -79 265 -157 179 -179 220 -416 108 -638 -35 -70 -95 -146 -109
-138 -5 4 -24 -5 -41 -19 -38 -28 -151 -86 -169 -86 -7 0 -33 -10 -57 -21 -39
-19 -56 -21 -146 -16 -233 12 -431 140 -498 323 -20 53 -23 83 -25 274 l-4
215 48 -80 c67 -113 127 -172 181 -181 33 -5 42 -11 42 -27 0 -73 76 -181 147
-210 152 -60 349 9 417 145 34 68 33 94 -8 172 -19 36 -40 82 -46 102 -16 47
-86 118 -134 135 -33 12 -36 16 -36 51 0 24 -12 60 -35 101 -19 35 -35 67 -35
70 0 8 78 -1 135 -15z m-11028 -202 c1 -1 -11 -20 -26 -43 -50 -75 -66 -144
-66 -288 0 -71 3 -151 7 -177 l8 -47 -43 -11 c-64 -16 -118 -42 -154 -73 -28
-25 -32 -26 -37 -10 -13 48 -46 255 -46 292 0 16 6 21 29 21 60 0 66 61 6 68
l-28 4 6 73 c4 43 18 101 33 140 l26 65 142 -6 c77 -4 142 -7 143 -8z m1646
-24 c26 -23 8 -29 -113 -37 l-108 -7 19 -55 c11 -29 22 -75 25 -101 11 -100 0
-92 124 -92 61 0 110 -3 110 -8 0 -4 -7 -63 -15 -132 -18 -155 -30 -201 -50
-193 -9 3 -15 -1 -15 -11 0 -9 5 -16 11 -16 14 0 4 -31 -33 -107 -17 -35 -37
-63 -45 -63 -8 0 -11 -4 -8 -10 8 -12 -79 -105 -139 -148 l-44 -32 -56 116
c-56 116 -56 116 -78 100 -76 -53 -192 -106 -233 -106 -21 0 -19 -14 20 -130
19 -57 33 -105 32 -107 -2 -1 -28 -8 -58 -13 -79 -16 -263 -14 -344 3 -71 15
-231 72 -239 85 -2 4 31 55 74 112 l79 105 -47 29 c-26 16 -75 58 -110 94
l-63 65 -92 -91 c-51 -51 -97 -92 -102 -92 -6 0 -24 21 -42 48 -92 137 -144
304 -146 467 -2 96 17 225 33 225 5 0 61 -20 126 -45 127 -48 127 -48 139 14
4 19 20 64 35 98 l29 64 653 -7 c568 -6 655 -9 671 -22z m276 -147 c30 -151
33 -178 29 -303 -3 -86 -12 -162 -23 -206 l-18 -68 -53 5 c-29 3 -72 14 -97
25 l-44 20 17 68 c21 81 40 335 34 449 -5 80 -18 139 -37 163 -7 9 9 12 75 12
l85 0 32 -165z m8406 -83 c0 -203 3 -245 19 -296 l18 -58 -68 -69 c-38 -38
-72 -65 -76 -61 -4 4 -25 43 -47 87 -78 157 -105 321 -77 474 8 45 17 85 20
88 3 3 37 -6 76 -21 40 -14 75 -24 80 -21 4 3 11 21 14 41 9 44 27 86 35 78 3
-3 6 -112 6 -242z m-10384 -374 c15 -60 71 -178 109 -233 49 -72 148 -172 216
-221 74 -53 226 -125 309 -147 33 -9 100 -21 150 -27 49 -6 90 -12 91 -13 1
-1 -2 -40 -7 -87 -4 -47 -6 -102 -2 -123 l6 -38 -54 7 c-179 22 -402 114 -574
235 -111 79 -284 249 -354 349 -48 69 -137 229 -129 234 40 31 190 102 220
105 4 1 12 -18 19 -41z m1820 -132 c30 -13 71 -26 92 -30 20 -4 37 -10 37 -14
0 -19 -101 -206 -142 -263 -60 -84 -191 -208 -279 -265 -142 -92 -334 -163
-448 -167 l-66 -2 -17 80 c-9 44 -17 98 -17 121 l-1 41 98 17 c191 34 369 120
503 244 l79 74 31 -27 c37 -31 102 -65 124 -65 34 0 11 28 -45 55 -33 16 -68
37 -77 47 -16 18 -16 21 1 46 9 15 29 51 42 80 14 28 27 52 28 52 2 0 28 -11
57 -24z m8870 -91 c87 -39 175 -58 288 -59 l104 -1 29 -85 c15 -46 28 -87 28
-91 0 -16 -149 -31 -245 -26 -116 6 -226 38 -322 94 l-62 37 30 40 c17 23 43
58 57 78 15 21 30 38 33 38 4 0 31 -11 60 -25z m-466 -337 c123 -93 255 -164
395 -214 96 -33 57 -29 -50 6 -226 74 -439 223 -578 405 -41 55 -35 50 64 -46
60 -58 136 -126 169 -151z"/>
<path d="M11070 15442 c-70 -71 -35 -250 47 -240 80 10 99 190 26 248 -33 26
-39 25 -73 -8z"/>
<path d="M9646 15385 c-59 -55 -85 -161 -45 -189 34 -23 50 -10 43 34 -11 68
39 140 87 125 26 -9 59 -62 59 -97 0 -18 5 -28 15 -28 18 0 19 25 4 86 -22 86
-106 122 -163 69z"/>
<path d="M5651 10624 c-107 -90 -182 -464 -93 -464 25 0 78 35 97 64 20 29 97
388 89 410 -9 25 -59 19 -93 -10z"/>
<path d="M5083 10518 c-54 -26 -124 -188 -144 -335 -14 -100 -4 -147 34 -151
14 -2 37 4 51 14 34 21 92 142 107 220 11 55 11 64 -4 79 -27 26 -17 95 17
117 14 9 -5 62 -24 65 -8 1 -25 -3 -37 -9z"/>
<path d="M4467 10359 c-81 -94 -150 -395 -101 -443 55 -55 138 45 180 218 15
60 15 66 0 81 -21 22 -20 71 3 109 14 22 16 37 10 54 -14 36 -52 28 -92 -19z"/>
<path d="M5688 9661 c-13 -11 -38 -46 -55 -78 -33 -63 -78 -191 -70 -199 10
-10 64 25 101 67 52 57 78 118 74 176 -3 54 -15 61 -50 34z"/>
<path d="M3901 9255 c-17 -20 -38 -52 -47 -73 -20 -47 -64 -173 -64 -184 0
-16 77 31 108 67 40 45 59 81 71 137 20 89 -13 115 -68 53z"/>
<path d="M5740 4280 c-65 -31 -76 -43 -130 -153 -41 -81 -50 -108 -50 -152 0
-111 79 -203 224 -261 93 -38 169 -38 241 -1 97 49 138 119 149 253 11 130
-23 217 -109 275 -53 36 -99 49 -198 55 -69 4 -89 2 -127 -16z"/>
</g>
</svg>
